<svg xmlns="http://www.w3.org/2000/svg" viewBox="0 0 425.11 365.74"><defs><style>.f6fe5fa2-9004-4596-ba70-3bd24c3b2691{fill:#231f20;opacity:0.1;}.e70ca258-a21d-4c85-87ef-b5d2ed99cc4a{fill:#519922;}.b5026662-0f84-4ab6-9e07-f025cbe7c100{fill:#fbfac4;}.ea07defc-4277-47ed-92aa-442b96b6b110{fill:#a0be3b;}.b5dc8f9f-38e1-4960-b5f8-d949a043c3b9,.b9c40cdf-a74c-4068-8bd6-633c85bb684c,.e8d4b424-fcd6-4eed-91eb-494dbebca421{fill:#fff;}.b5dc8f9f-38e1-4960-b5f8-d949a043c3b9{opacity:0.5;}.a9d79c2b-2589-46b0-9987-21ddd57f2c92{fill:#007eae;}.a5fa3b62-9862-45bf-9a8f-729a14b06ad0{fill:#a1d859;}.a5fa3b62-9862-45bf-9a8f-729a14b06ad0,.b21cf28a-c962-4e31-90dc-a7d603f05460,.b7c24f2e-193b-4ac5-b5fc-fa4cd5d9b8aa,.b94b8897-f08f-413f-b834-3df1fc764895,.e2e5aae4-650b-4b8a-984c-13abb18105c7,.e4059a00-15cc-4f3a-aee1-b7c9270b43b3{opacity:0.9;}.ecf2e090-253c-4c6a-863b-c74059c221bb{fill:#f9fff8;}.ae481219-5fce-4953-8952-01715733cfbc,.b9c40cdf-a74c-4068-8bd6-633c85bb684c{opacity:0.3;}.b6673e74-5333-48c5-9b0e-1ec1ea0cd64c{fill:#629439;}.b0b33246-d7aa-423c-bd38-009fbe02367c{fill:#4f7e36;}.e1fcca69-d2f1-453a-b385-b3bef8f82aef{fill:#d2324a;}.b7c24f2e-193b-4ac5-b5fc-fa4cd5d9b8aa{fill:#f7d548;}.ae009a81-4ceb-4384-8c20-19a324bcd1c1{fill:#d67b25;}.b198b523-2969-4c14-9b3b-748a3b211ee9{fill:#eed815;}.a985b9a2-fb3c-4601-9732-c79b62f9ffb5{fill:#ebebb5;}.e9d66072-3293-4490-b847-e7390d0dcd66{fill:#809331;}.ae2b0012-a21c-4ee9-9fb7-4cdaa5cf1a71{fill:#42682f;}.bb821293-b14c-431b-b681-8cf60b3c26dd{fill:#f4350f;}.b94b8897-f08f-413f-b834-3df1fc764895{fill:#a52c07;}.e4059a00-15cc-4f3a-aee1-b7c9270b43b3{fill:#e5281f;}.b21cf28a-c962-4e31-90dc-a7d603f05460{fill:#f7d237;}.bdfa1595-1016-425a-8d50-250107a70e3f{fill:#c97429;}.a3adb015-cb74-45e7-87d0-46ef5480d961{fill:#edd019;}.e2e5aae4-650b-4b8a-984c-13abb18105c7{fill:#ff500b;}</style></defs><title>cocktails</title><g id="e5e124e5-a504-4aaa-97e0-d64f21d2b7f0" data-name="Livello 2"><g id="be0efee2-7a8e-472f-9279-d2a47c8a1027" data-name="OBJECTS"><path class="f6fe5fa2-9004-4596-ba70-3bd24c3b2691" d="M408.7,154.81c0,2.1-18.38,3.8-41,3.8s-41-1.7-41-3.8,18.37-3.8,41-3.8S408.7,152.71,408.7,154.81Z"/><path class="e70ca258-a21d-4c85-87ef-b5d2ed99cc4a" d="M299.81,24.81a24.82,24.82,0,0,1,49.63,0"/><path class="b5026662-0f84-4ab6-9e07-f025cbe7c100" d="M301.28,24.81a23.35,23.35,0,0,1,46.69,0"/><path class="ea07defc-4277-47ed-92aa-442b96b6b110" d="M326.1,24.62l13.72-13.16A19,19,0,0,1,345,22.93Z"/><path class="ea07defc-4277-47ed-92aa-442b96b6b110" d="M325.36,23.57l.39-19A19.23,19.23,0,0,1,332,5.77,18.77,18.77,0,0,1,337.55,9Z"/><path class="ea07defc-4277-47ed-92aa-442b96b6b110" d="M324.09,23.36,310.93,9.64A19,19,0,0,1,322.4,4.42Z"/><path class="ea07defc-4277-47ed-92aa-442b96b6b110" d="M323,24.1l-19-.39a18.93,18.93,0,0,1,4.42-11.8Z"/><path class="e70ca258-a21d-4c85-87ef-b5d2ed99cc4a" d="M299.81,24.29a24.82,24.82,0,0,0,49.63,0"/><path class="b5026662-0f84-4ab6-9e07-f025cbe7c100" d="M301.28,24.29a23.35,23.35,0,0,0,46.69,0"/><path class="ea07defc-4277-47ed-92aa-442b96b6b110" d="M326.1,24.48l13.72,13.16A19,19,0,0,0,345,26.17Z"/><path class="ea07defc-4277-47ed-92aa-442b96b6b110" d="M325.36,25.53l.39,19A19.23,19.23,0,0,0,332,43.33a18.77,18.77,0,0,0,5.52-3.22Z"/><path class="ea07defc-4277-47ed-92aa-442b96b6b110" d="M324.09,25.74,310.93,39.46a19,19,0,0,0,11.47,5.22Z"/><path class="ea07defc-4277-47ed-92aa-442b96b6b110" d="M323,25l-19,.39a18.93,18.93,0,0,0,4.42,11.8Z"/><rect class="b5dc8f9f-38e1-4960-b5f8-d949a043c3b9" x="324.63" y="24.86" width="62.13" height="9.64"/><rect class="e8d4b424-fcd6-4eed-91eb-494dbebca421" x="357.02" y="12.42" width="6.76" height="107.57" transform="matrix(-0.96, -0.28, 0.28, -0.96, 688.52, 229.31)"/><polygon class="e8d4b424-fcd6-4eed-91eb-494dbebca421" points="377.67 8.73 372 13.57 378.49 15.44 377.67 8.73"/><polygon class="a9d79c2b-2589-46b0-9987-21ddd57f2c92" points="345.08 107.3 350.67 112.31 349.13 117.68 343.54 112.67 345.08 107.3"/><polygon class="a9d79c2b-2589-46b0-9987-21ddd57f2c92" points="348.15 96.61 353.74 101.62 352.2 106.99 346.61 101.99 348.15 96.61"/><polygon class="a9d79c2b-2589-46b0-9987-21ddd57f2c92" points="351.22 85.93 356.81 90.93 355.27 96.31 349.68 91.3 351.22 85.93"/><polygon class="a9d79c2b-2589-46b0-9987-21ddd57f2c92" points="354.29 75.24 359.88 80.25 358.34 85.62 352.75 80.61 354.29 75.24"/><polygon class="a9d79c2b-2589-46b0-9987-21ddd57f2c92" points="357.36 64.55 362.95 69.56 361.41 74.93 355.82 69.92 357.36 64.55"/><polygon class="a9d79c2b-2589-46b0-9987-21ddd57f2c92" points="360.43 53.86 366.02 58.87 364.48 64.24 358.88 59.24 360.43 53.86"/><polygon class="a9d79c2b-2589-46b0-9987-21ddd57f2c92" points="363.5 43.17 369.09 48.18 367.55 53.55 361.95 48.55 363.5 43.17"/><polygon class="a9d79c2b-2589-46b0-9987-21ddd57f2c92" points="366.57 32.49 372.16 37.49 370.61 42.87 365.02 37.86 366.57 32.49"/><polygon class="a9d79c2b-2589-46b0-9987-21ddd57f2c92" points="369.63 21.8 375.23 26.81 373.68 32.18 368.09 27.17 369.63 21.8"/><polygon class="a9d79c2b-2589-46b0-9987-21ddd57f2c92" points="372 13.57 378.3 16.12 376.75 21.49 371.16 16.49 372 13.57"/><rect class="e8d4b424-fcd6-4eed-91eb-494dbebca421" x="398.01" y="-14.22" width="6.76" height="46.96" transform="translate(440.44 408.85) rotate(-96.9)"/><polygon class="a9d79c2b-2589-46b0-9987-21ddd57f2c92" points="387.66 7.52 385.22 14.62 379.67 15.29 382.11 8.19 387.66 7.52"/><polygon class="a9d79c2b-2589-46b0-9987-21ddd57f2c92" points="398.69 6.18 396.26 13.28 390.71 13.96 393.14 6.86 398.69 6.18"/><polygon class="a9d79c2b-2589-46b0-9987-21ddd57f2c92" points="409.73 4.85 407.3 11.95 401.75 12.62 404.18 5.52 409.73 4.85"/><polygon class="a9d79c2b-2589-46b0-9987-21ddd57f2c92" points="420.77 3.51 418.34 10.61 412.79 11.28 415.22 4.18 420.77 3.51"/><rect class="a5fa3b62-9862-45bf-9a8f-729a14b06ad0" x="328.38" y="34.5" width="54.62" height="107.72"/><path class="ecf2e090-253c-4c6a-863b-c74059c221bb" d="M382.9,24.86V142.22H328.28V24.86h-3.65V152.37a2.43,2.43,0,0,0,2.43,2.44h57.26a2.44,2.44,0,0,0,2.44-2.44V24.86Z"/><rect class="b9c40cdf-a74c-4068-8bd6-633c85bb684c" x="332.13" y="42.3" width="24.26" height="24.26" rx="2" transform="translate(73.34 -164.84) rotate(30)"/><rect class="b9c40cdf-a74c-4068-8bd6-633c85bb684c" x="353.3" y="36.96" width="24.26" height="24.26" rx="2" transform="translate(0.21 99.7) rotate(-15.54)"/><path class="b6673e74-5333-48c5-9b0e-1ec1ea0cd64c" d="M371.1,128.26c-10.83,11.64-27.72,13.55-27.72,13.55s.68-17,11.52-28.63,27.73-13.55,27.73-13.55S381.94,116.61,371.1,128.26Z"/><path class="b0b33246-d7aa-423c-bd38-009fbe02367c" d="M382.63,99.63s-.69,17-11.53,28.63-27.72,13.55-27.72,13.55"/><path class="e70ca258-a21d-4c85-87ef-b5d2ed99cc4a" d="M349.74,110A24.81,24.81,0,1,1,363.15,62.2"/><path class="b5026662-0f84-4ab6-9e07-f025cbe7c100" d="M350.13,108.56a23.34,23.34,0,0,1,12.62-44.95"/><path class="ea07defc-4277-47ed-92aa-442b96b6b110" d="M356.65,84.61l-9-16.76a19,19,0,0,1,6.07-2,18.78,18.78,0,0,1,6.39.1Z"/><path class="ea07defc-4277-47ed-92aa-442b96b6b110" d="M355.44,85.05l-18.19-5.52a19.05,19.05,0,0,1,7.45-10.17Z"/><path class="ea07defc-4277-47ed-92aa-442b96b6b110" d="M354.89,86.21l-16.76,9a18.84,18.84,0,0,1-2-6.06,19,19,0,0,1,.1-6.39Z"/><path class="ea07defc-4277-47ed-92aa-442b96b6b110" d="M355.33,87.42l-5.52,18.19a19,19,0,0,1-10.16-7.45Z"/><path class="b6673e74-5333-48c5-9b0e-1ec1ea0cd64c" d="M375.72,90.76c-3.4,13.11-15.28,21.37-15.28,21.37s-6.36-13-3-26.11,15.29-21.37,15.29-21.37S379.13,77.64,375.72,90.76Z"/><path class="b0b33246-d7aa-423c-bd38-009fbe02367c" d="M372.77,64.65s6.36,13,3,26.11-15.28,21.37-15.28,21.37"/><path class="b6673e74-5333-48c5-9b0e-1ec1ea0cd64c" d="M350.64,102.88c7.63,12,5.47,27,5.47,27s-14.51-4.41-22.14-16.4-5.47-27-5.47-27S343,90.9,350.64,102.88Z"/><path class="b0b33246-d7aa-423c-bd38-009fbe02367c" d="M328.5,86.48s14.52,4.42,22.14,16.4,5.47,27,5.47,27"/><rect class="b9c40cdf-a74c-4068-8bd6-633c85bb684c" x="333.36" y="24.86" width="12.59" height="129.95"/><path class="f6fe5fa2-9004-4596-ba70-3bd24c3b2691" d="M355.69,24.86h31.07a0,0,0,0,1,0,0v128a2,2,0,0,1-2,2H355.69a0,0,0,0,1,0,0v-130A0,0,0,0,1,355.69,24.86Z"/><ellipse class="f6fe5fa2-9004-4596-ba70-3bd24c3b2691" cx="218.45" cy="361.94" rx="41.04" ry="3.8"/><rect class="e8d4b424-fcd6-4eed-91eb-494dbebca421" x="221.75" y="188.8" width="5.93" height="160.15" transform="translate(402.77 570.69) rotate(-170.65)"/><polygon class="e1fcca69-d2f1-453a-b385-b3bef8f82aef" points="211.21 332.63 216.28 338.4 214.93 346.61 209.86 340.85 211.21 332.63"/><polygon class="e1fcca69-d2f1-453a-b385-b3bef8f82aef" points="213.9 316.3 218.97 322.07 217.62 330.28 212.55 324.51 213.9 316.3"/><polygon class="e1fcca69-d2f1-453a-b385-b3bef8f82aef" points="216.59 299.96 221.66 305.73 220.31 313.94 215.24 308.18 216.59 299.96"/><polygon class="e1fcca69-d2f1-453a-b385-b3bef8f82aef" points="219.28 283.63 224.35 289.4 222.99 297.61 217.93 291.84 219.28 283.63"/><polygon class="e1fcca69-d2f1-453a-b385-b3bef8f82aef" points="221.97 267.3 227.04 273.06 225.68 281.27 220.62 275.51 221.97 267.3"/><polygon class="e1fcca69-d2f1-453a-b385-b3bef8f82aef" points="224.66 250.96 229.72 256.73 228.37 264.94 223.31 259.17 224.66 250.96"/><polygon class="e1fcca69-d2f1-453a-b385-b3bef8f82aef" points="227.35 234.63 232.41 240.39 231.06 248.6 226 242.84 227.35 234.63"/><polygon class="e1fcca69-d2f1-453a-b385-b3bef8f82aef" points="230.04 218.29 235.1 224.06 233.75 232.27 228.69 226.5 230.04 218.29"/><polygon class="e1fcca69-d2f1-453a-b385-b3bef8f82aef" points="232.73 201.96 237.79 207.72 236.44 215.94 231.38 210.17 232.73 201.96"/><polygon class="e1fcca69-d2f1-453a-b385-b3bef8f82aef" points="234.8 189.39 240.48 191.39 239.13 199.6 234.06 193.84 234.8 189.39"/><rect class="b5dc8f9f-38e1-4960-b5f8-d949a043c3b9" x="176.22" y="231.98" width="62.13" height="9.64"/><rect class="b7c24f2e-193b-4ac5-b5fc-fa4cd5d9b8aa" x="179.87" y="241.63" width="54.72" height="107.72"/><path class="ecf2e090-253c-4c6a-863b-c74059c221bb" d="M234.49,232V349.35H179.87V232h-3.65V359.5a2.44,2.44,0,0,0,2.43,2.44h57.26a2.44,2.44,0,0,0,2.44-2.44V232Z"/><rect class="b9c40cdf-a74c-4068-8bd6-633c85bb684c" x="183.71" y="249.43" width="24.26" height="24.26" rx="2" transform="translate(157.02 -62.88) rotate(30)"/><rect class="b9c40cdf-a74c-4068-8bd6-633c85bb684c" x="207.27" y="259.17" width="24.26" height="24.26" rx="2" transform="translate(-22.83 20.17) rotate(-5)"/><rect class="b9c40cdf-a74c-4068-8bd6-633c85bb684c" x="207.02" y="287.27" width="24.26" height="24.26" rx="2" transform="translate(-130.83 176.18) rotate(-34.4)"/><path class="ae009a81-4ceb-4384-8c20-19a324bcd1c1" d="M198.67,326.26a24.81,24.81,0,1,1,13.41-47.78"/><path class="b5026662-0f84-4ab6-9e07-f025cbe7c100" d="M199.06,324.84a23.34,23.34,0,0,1,12.62-44.94"/><path class="b198b523-2969-4c14-9b3b-748a3b211ee9" d="M205.58,300.9l-9-16.77a19.07,19.07,0,0,1,12.46-1.92Z"/><path class="b198b523-2969-4c14-9b3b-748a3b211ee9" d="M204.37,301.33l-18.19-5.52a19.19,19.19,0,0,1,2.86-5.72,19,19,0,0,1,4.59-4.44Z"/><path class="b198b523-2969-4c14-9b3b-748a3b211ee9" d="M203.83,302.49l-16.77,9A19,19,0,0,1,185.14,299Z"/><path class="b198b523-2969-4c14-9b3b-748a3b211ee9" d="M204.26,303.7l-5.52,18.19A19.28,19.28,0,0,1,193,319a19,19,0,0,1-4.44-4.6Z"/><path class="ae009a81-4ceb-4384-8c20-19a324bcd1c1" d="M218.64,303.35A24.81,24.81,0,0,1,187.55,342"/><path class="b5026662-0f84-4ab6-9e07-f025cbe7c100" d="M217.72,304.5a23.34,23.34,0,1,1-29.25,36.38"/><path class="b198b523-2969-4c14-9b3b-748a3b211ee9" d="M202.32,324,204,342.9a19,19,0,0,1-12.21-3.12Z"/><path class="b198b523-2969-4c14-9b3b-748a3b211ee9" d="M203.61,324l14.56,12.22a19,19,0,0,1-10.84,6.42Z"/><path class="b198b523-2969-4c14-9b3b-748a3b211ee9" d="M204.57,323.18l18.93-1.66a19,19,0,0,1-3.12,12.21Z"/><path class="b198b523-2969-4c14-9b3b-748a3b211ee9" d="M204.64,321.9l12.22-14.56a19,19,0,0,1,6.42,10.84Z"/><rect class="b9c40cdf-a74c-4068-8bd6-633c85bb684c" x="184.95" y="231.98" width="12.59" height="129.95"/><path class="f6fe5fa2-9004-4596-ba70-3bd24c3b2691" d="M207.28,232h31.07a0,0,0,0,1,0,0v128a2,2,0,0,1-2,2H207.28a0,0,0,0,1,0,0V232A0,0,0,0,1,207.28,232Z"/><path class="f6fe5fa2-9004-4596-ba70-3bd24c3b2691" d="M260.19,154.81c0,2.1-18.38,3.8-41,3.8s-41-1.7-41-3.8,18.37-3.8,41-3.8S260.19,152.71,260.19,154.81Z"/><polygon class="b5dc8f9f-38e1-4960-b5f8-d949a043c3b9" points="208.69 83.96 261.44 22.53 155.93 22.53 208.69 83.96"/><polygon class="a985b9a2-fb3c-4601-9732-c79b62f9ffb5" points="208.69 77.03 252.52 25.99 164.86 25.99 208.69 77.03"/><rect class="b5026662-0f84-4ab6-9e07-f025cbe7c100" x="220.81" y="-0.83" width="2.32" height="76.74" transform="translate(32.49 -84.02) rotate(23.08)"/><ellipse class="e9d66072-3293-4490-b847-e7390d0dcd66" cx="227.34" cy="26.58" rx="10.81" ry="7.92" transform="translate(6.51 86.78) rotate(-21.92)"/><path class="ae2b0012-a21c-4ee9-9fb7-4cdaa5cf1a71" d="M236.24,23a2.67,2.67,0,1,1-3.47-1.48A2.67,2.67,0,0,1,236.24,23Z"/><path class="e9d66072-3293-4490-b847-e7390d0dcd66" d="M213.39,39.81c4.06-1.64,9.15,1.53,11.38,7.07s.75,11.36-3.31,13-9.15-1.54-11.38-7.08S209.33,41.44,213.39,39.81Z"/><path class="ae2b0012-a21c-4ee9-9fb7-4cdaa5cf1a71" d="M213.84,40.94a2.66,2.66,0,1,1-1.47,3.46A2.67,2.67,0,0,1,213.84,40.94Z"/><path class="ecf2e090-253c-4c6a-863b-c74059c221bb" d="M255.49,22.53,212.38,72.72a4.87,4.87,0,0,1-7.39,0l-43.1-50.19h-6L208.69,84l52.75-61.43Z"/><path class="ecf2e090-253c-4c6a-863b-c74059c221bb" d="M239.64,154.81c0-6.22-22.76-15.7-22.76-15.7a11,11,0,0,1-4.74-9V78.64h-6.9v51.44a11,11,0,0,1-4.75,9s-22.76,9.73-22.76,15.7Z"/><polygon class="b9c40cdf-a74c-4068-8bd6-633c85bb684c" points="171.38 22.53 198.03 69.25 208.69 76.35 187.82 22.33 171.38 22.53"/><path class="f6fe5fa2-9004-4596-ba70-3bd24c3b2691" d="M216.88,139.11a11,11,0,0,1-4.74-9V79.94l49.3-57.41H208.69V84h0v70.86h30.95C239.64,148.59,216.88,139.11,216.88,139.11Z"/><path class="f6fe5fa2-9004-4596-ba70-3bd24c3b2691" d="M109.89,154.81c0,2.1-18.37,3.8-41,3.8s-41-1.7-41-3.8,18.38-3.8,41-3.8S109.89,152.71,109.89,154.81Z"/><rect class="b5dc8f9f-38e1-4960-b5f8-d949a043c3b9" x="26.15" y="63.84" width="71.88" height="78.17"/><rect class="bb821293-b14c-431b-b681-8cf60b3c26dd" x="80.72" y="13.79" width="5.93" height="132.1" transform="translate(129.64 185.99) rotate(-157.06)"/><path class="ecf2e090-253c-4c6a-863b-c74059c221bb" d="M94.17,63.84v78.38H29.8V63.84H26.15v88.53a2.43,2.43,0,0,0,2.43,2.44h67A2.44,2.44,0,0,0,98,152.37V63.84Z"/><rect class="b94b8897-f08f-413f-b834-3df1fc764895" x="29.8" y="78.3" width="64.37" height="63.92"/><rect class="b9c40cdf-a74c-4068-8bd6-633c85bb684c" x="35.17" y="114" width="24.26" height="24.26" rx="2" transform="translate(69.4 -6.75) rotate(30)"/><rect class="b9c40cdf-a74c-4068-8bd6-633c85bb684c" x="51.01" y="89.93" width="24.26" height="24.26" rx="2" transform="translate(15.19 -7.96) rotate(8.19)"/><rect class="b9c40cdf-a74c-4068-8bd6-633c85bb684c" x="66.09" y="114.76" width="24.26" height="24.26" rx="2" transform="translate(-31.14 25.59) rotate(-15.54)"/><path class="f6fe5fa2-9004-4596-ba70-3bd24c3b2691" d="M62,63.84H98a0,0,0,0,1,0,0v89a2,2,0,0,1-2,2H62a0,0,0,0,1,0,0v-91A0,0,0,0,1,62,63.84Z"/><rect class="b9c40cdf-a74c-4068-8bd6-633c85bb684c" x="35.39" y="63.84" width="12.79" height="90.97"/><ellipse class="f6fe5fa2-9004-4596-ba70-3bd24c3b2691" cx="363.66" cy="361.94" rx="41.04" ry="3.8"/><path class="b5dc8f9f-38e1-4960-b5f8-d949a043c3b9" d="M371.9,230.77c.53-11.33,14.91-24.88,14.91-24.88l-33.69.37-33.7-.37s14.38,13.55,14.91,24.88-14.91,42.09-14.91,58.4c0,23.68,15.29,39.64,32.91,40.32.14,0,.26,0,.4,0h.77c.14,0,.27,0,.4,0,17.62-.68,32.91-16.64,32.91-40.32C386.81,272.86,371.37,242.1,371.9,230.77Z"/><path class="e4059a00-15cc-4f3a-aee1-b7c9270b43b3" d="M380.16,261.07c3.45,10.23,6.65,20.66,6.65,28.1,0,23.68-15.29,39.64-32.91,40.32-.13,0-.26,0-.4,0h-.77c-.14,0-.26,0-.4,0-17.62-.68-32.91-16.64-32.91-40.32,0-7.42,3.19-17.81,6.62-28"/><path class="b21cf28a-c962-4e31-90dc-a7d603f05460" d="M326,261.15c4.12-12.24,8.58-24.2,8.29-30.38-.2-4.24-2.35-8.81-4.95-12.85l47.4.12c-2.57,4-4.68,8.53-4.88,12.73-.29,6.17,4.15,18.09,8.26,30.3"/><g class="ae481219-5fce-4953-8952-01715733cfbc"><path class="e8d4b424-fcd6-4eed-91eb-494dbebca421" d="M359.72,327.8c-21.12-.82-31.31-14-31.31-38.63,0-9.35,4.35-22.09,8.55-34.41,3.24-9.47,6.58-19.27,6.37-23.79-.37-7.84-10-21.52-13.69-25l9.95.11c1.6,1.51,10.28,11.77,10.87,24.46.29,6.15-1.57,15.79-5.38,27S337,281.25,337,289.17c0,19.91,12.37,35.4,28.79,36Z"/></g><path class="ecf2e090-253c-4c6a-863b-c74059c221bb" d="M371.9,230.77c.53-11.33,14.91-24.88,14.91-24.88L380,206c-.77.78-12.87,13.18-13.28,23.62-.43,10.79,14.78,42.93,14.78,58.46,0,22.54-13.66,36.31-27.76,37l-.31,0h-.62c-.11,0-.21,0-.32,0-14.1-.65-27.76-14.42-27.76-37,0-15.53,15.21-47.67,14.79-58.46C339.1,219.14,327,206.74,326.23,206l-6.81-.07s14.38,13.55,14.91,24.88-14.91,42.09-14.91,58.4c0,23.68,15.29,39.64,32.91,40.32.14,0,.26,0,.4,0h.77c.14,0,.27,0,.4,0,17.62-.68,32.91-16.64,32.91-40.32C386.81,272.86,371.37,242.1,371.9,230.77Z"/><path class="ecf2e090-253c-4c6a-863b-c74059c221bb" d="M384,361.94c0-6.2-22.69-15.65-22.69-15.65a10.92,10.92,0,0,1-4.72-9V324.94h-6.89v12.35a10.92,10.92,0,0,1-4.72,9s-22.69,9.7-22.69,15.65Z"/><rect class="b9c40cdf-a74c-4068-8bd6-633c85bb684c" x="330.39" y="267.08" width="21.46" height="21.46" rx="2" transform="translate(184.61 -133.34) rotate(30)"/><rect class="b9c40cdf-a74c-4068-8bd6-633c85bb684c" x="338.25" y="297.63" width="21.46" height="21.46" rx="2" transform="translate(-115.46 274.16) rotate(-37.25)"/><rect class="b9c40cdf-a74c-4068-8bd6-633c85bb684c" x="356.37" y="277.47" width="21.46" height="21.46" rx="2" transform="translate(59.27 -62.6) rotate(10.6)"/><path class="f6fe5fa2-9004-4596-ba70-3bd24c3b2691" d="M353.12,361.94H384c0-6.2-22.69-15.65-22.69-15.65a10.92,10.92,0,0,1-4.72-9v-8c16.47-2.1,30.25-17.61,30.25-40.09,0-16.31-15.44-47.07-14.91-58.4s14.91-24.88,14.91-24.88l-33.69.37"/><ellipse class="f6fe5fa2-9004-4596-ba70-3bd24c3b2691" cx="72.85" cy="361.94" rx="41.04" ry="3.8"/><path class="bdfa1595-1016-425a-8d50-250107a70e3f" d="M0,237a24.82,24.82,0,0,1,49.63,0"/><path class="b5026662-0f84-4ab6-9e07-f025cbe7c100" d="M1.47,237a23.35,23.35,0,0,1,46.69,0"/><path class="a3adb015-cb74-45e7-87d0-46ef5480d961" d="M26.29,236.84,40,223.68a19.11,19.11,0,0,1,5.21,11.48Z"/><path class="a3adb015-cb74-45e7-87d0-46ef5480d961" d="M25.54,235.79l.4-19A18.77,18.77,0,0,1,32.22,218a19.09,19.09,0,0,1,5.52,3.21Z"/><path class="a3adb015-cb74-45e7-87d0-46ef5480d961" d="M24.27,235.58,11.12,221.86a19,19,0,0,1,11.47-5.21Z"/><path class="a3adb015-cb74-45e7-87d0-46ef5480d961" d="M23.23,236.33l-19-.4a19,19,0,0,1,4.43-11.8Z"/><path class="bdfa1595-1016-425a-8d50-250107a70e3f" d="M0,236.51a24.82,24.82,0,1,0,49.63,0"/><path class="b5026662-0f84-4ab6-9e07-f025cbe7c100" d="M1.47,236.51a23.35,23.35,0,1,0,46.69,0"/><path class="a3adb015-cb74-45e7-87d0-46ef5480d961" d="M26.29,236.71,40,249.87a19,19,0,0,0,5.21-11.48Z"/><path class="a3adb015-cb74-45e7-87d0-46ef5480d961" d="M25.54,237.76l.4,19a19,19,0,0,0,6.28-1.2,19.35,19.35,0,0,0,5.52-3.22Z"/><path class="a3adb015-cb74-45e7-87d0-46ef5480d961" d="M24.27,238,11.12,251.69a18.71,18.71,0,0,0,5.29,3.58,18.91,18.91,0,0,0,6.18,1.63Z"/><path class="a3adb015-cb74-45e7-87d0-46ef5480d961" d="M23.23,237.22l-19,.4a19,19,0,0,0,4.43,11.8Z"/><path class="ecf2e090-253c-4c6a-863b-c74059c221bb" d="M93.72,361.94c0-6.22-22.76-15.7-22.76-15.7a11,11,0,0,1-4.74-9V298.6h-6.9v38.61a11,11,0,0,1-4.74,9S31.81,356,31.81,361.94Z"/><rect class="e8d4b424-fcd6-4eed-91eb-494dbebca421" x="87.9" y="196.76" width="5.93" height="102.16" transform="translate(77.95 511.5) rotate(-157.06)"/><path class="b5dc8f9f-38e1-4960-b5f8-d949a043c3b9" d="M97.6,237.49a39.79,39.79,0,1,1-69.66,0"/><path class="e2e5aae4-650b-4b8a-984c-13abb18105c7" d="M101.47,247.43a40.28,40.28,0,0,1,1.09,9.31,39.79,39.79,0,1,1-78.49-9.31"/><path class="ecf2e090-253c-4c6a-863b-c74059c221bb" d="M100.6,237.49H24.93a43.23,43.23,0,1,0,75.67,0ZM62.77,296.54a39.81,39.81,0,0,1-34.83-59.05H97.6a39.81,39.81,0,0,1-34.83,59.05Z"/><path class="f6fe5fa2-9004-4596-ba70-3bd24c3b2691" d="M62.77,361.94H93.72c0-6.22-22.76-15.7-22.76-15.7a11,11,0,0,1-4.74-9V301.48a43.23,43.23,0,0,0,34.38-64H62.77"/><g class="ae481219-5fce-4953-8952-01715733cfbc"><path class="e8d4b424-fcd6-4eed-91eb-494dbebca421" d="M64.67,296.54c-24.85,0-39.13-13.29-39.13-38.14a41.61,41.61,0,0,1,5.53-20.91h8.32a35.88,35.88,0,0,0-4.87,17.64c0,20.67,16.81,40.2,37.48,40.2Z"/></g><rect class="b9c40cdf-a74c-4068-8bd6-633c85bb684c" x="30.31" y="254.17" width="24.26" height="24.26" rx="2" transform="translate(200.73 47.99) rotate(45)"/><rect class="b9c40cdf-a74c-4068-8bd6-633c85bb684c" x="56.53" y="269.21" width="24.26" height="24.26" rx="2" transform="translate(-56.19 20.04) rotate(-11.82)"/></g></g></svg>